<svg viewBox="-64.2104 -143.79987 2678.8232 6039.5996" xmlns="http://www.w3.org/2000/svg">
<g>
<path d="M-0.42895508,0 L2550.8313,0 L2550.8313,5752 L-0.42895508,5752 z" fill="#CC824A" stroke="black" stroke-width="10.715294"/>
</g>
<g>
<g>
<path d="M0.07046509,29.762085 L129.87045,0.9176636 L306.95508,59.94586 L543.3983,169.34497 L737.07043,274.9843 L855.07043,326.9843 L959.07043,349.9843 L1071.0704,342.9843 L1275.0704,291.9843 L1250.0704,535.9843 L1275.0704,781.9843 L1071.0704,730.9843 L959.07043,723.9843 L855.07043,746.9843 L737.07043,798.9843 L543.3983,904.6237 L306.95508,1014.02277 L129.87045,1073.051 L0.07046509,1044.2065 z" fill="#FFC879" fill-rule="nonzero" opacity="0.9" stroke="black" stroke-width="5.357647"/>
</g>
<g>
<path d="M1275.1686,1797.8275 L1145.3687,1826.6719 L968.284,1767.6437 L731.84076,1658.2446 L538.16864,1552.6052 L420.16867,1500.6052 L316.16867,1477.6051 L204.1687,1484.6051 L0.16864014,1535.6051 L25.168701,1291.6051 L0.1687622,1045.6051 L204.1687,1096.6051 L316.16873,1103.6051 L420.16873,1080.6052 L538.16876,1028.6052 L731.84094,922.9658 L968.2842,813.5668 L1145.3688,754.53864 L1275.1688,783.38306 z" fill="#FFC879" fill-rule="nonzero" opacity="0.9" stroke="black" stroke-width="5.357647"/>
</g>
<g>
<path d="M0.022918701,1536.9019 L129.8229,1508.0575 L306.90753,1567.0857 L543.3508,1676.4849 L737.02295,1782.1241 L855.02295,1834.1241 L959.02295,1857.1241 L1071.023,1850.1241 L1275.023,1799.1241 L1250.023,2043.1241 L1275.023,2289.124 L1071.023,2238.124 L959.02295,2231.124 L855.02295,2254.124 L737.02295,2306.124 L543.3507,2411.7637 L306.90753,2521.1626 L129.8229,2580.191 L0.022918701,2551.3464 z" fill="#FFC879" fill-rule="nonzero" opacity="0.9" stroke="black" stroke-width="5.357647"/>
</g>
<g>
<path d="M1275.038,3304.9678 L1145.238,3333.812 L968.1534,3274.784 L731.71014,3165.3848 L538.038,3059.7454 L420.03806,3007.7454 L316.03806,2984.7454 L204.03809,2991.7454 L0.038024902,3042.745 L25.038086,2798.7454 L0.038146973,2552.745 L204.03809,2603.7454 L316.03812,2610.7454 L420.03812,2587.7454 L538.03815,2535.7454 L731.7103,2430.106 L968.15356,2320.707 L1145.2382,2261.6787 L1275.0382,2290.5232 z" fill="#FFC879" fill-rule="nonzero" opacity="0.9" stroke="black" stroke-width="5.357647"/>
</g>
<g>
<path d="M0.011230469,3044.0662 L129.81122,3015.2217 L306.89584,3074.25 L543.3391,3183.649 L737.0112,3289.2883 L855.0112,3341.2883 L959.0112,3364.2883 L1071.0112,3357.2883 L1275.0112,3306.2883 L1250.0112,3550.2883 L1275.0112,3796.2883 L1071.0112,3745.2883 L959.0112,3738.2883 L855.0112,3761.2883 L737.0112,3813.2883 L543.33905,3918.9277 L306.89584,4028.3267 L129.81122,4087.355 L0.011230469,4058.5105 z" fill="#FFC879" fill-rule="nonzero" opacity="0.9" stroke="black" stroke-width="5.357647"/>
</g>
<g>
<path d="M1275.0317,4810.9453 L1145.2318,4839.79 L968.14716,4780.7617 L731.7039,4671.3623 L538.0318,4565.723 L420.03183,4513.723 L316.03183,4490.723 L204.03186,4497.723 L0.031799316,4548.723 L25.03186,4304.723 L0.031921387,4058.7231 L204.03186,4109.723 L316.0319,4116.723 L420.0319,4093.7231 L538.0319,4041.7231 L731.7041,3936.0837 L968.14734,3826.6848 L1145.2319,3767.6565 L1275.032,3796.501 z" fill="#FFC879" fill-rule="nonzero" opacity="0.9" stroke="black" stroke-width="5.357647"/>
</g>
<g>
<path d="M0.17068481,4548.822 L129.97067,4519.9775 L307.0553,4579.0054 L543.49854,4688.405 L737.17065,4794.044 L855.17065,4846.044 L959.17065,4869.044 L1071.1707,4862.044 L1275.1707,4811.044 L1250.1707,5055.044 L1275.1707,5301.044 L1071.1707,5250.044 L959.17065,5243.044 L855.17065,5266.044 L737.17065,5318.044 L543.49854,5423.6836 L307.0553,5533.0825 L129.97067,5592.1104 L0.17068481,5563.266 z" fill="#FFC879" fill-rule="nonzero" opacity="0.9" stroke="black" stroke-width="5.357647"/>
</g>
<g>
<path d="M1275.2019,29.955017 L1405.002,1.1105957 L1582.0865,60.138794 L1818.5298,169.5379 L2012.2019,275.17725 L2130.202,327.17725 L2234.202,350.17725 L2346.202,343.17725 L2550.202,292.17725 L2525.202,536.17725 L2550.202,782.17725 L2346.202,731.17725 L2234.202,724.17725 L2130.202,747.17725 L2012.2019,799.17725 L1818.5298,904.81665 L1582.0865,1014.2157 L1405.002,1073.2439 L1275.2019,1044.3994 z" fill="#FFC879" fill-rule="nonzero" opacity="0.9" stroke="black" stroke-width="5.357647"/>
</g>
<g>
<path d="M2550.3418,1797.1428 L2420.5417,1825.9873 L2243.457,1766.959 L2007.0139,1657.5598 L1813.3418,1551.9205 L1695.3418,1499.9205 L1591.3418,1476.9204 L1479.3418,1483.9204 L1275.3418,1534.9204 L1300.3418,1290.9204 L1275.3418,1044.9204 L1479.3418,1095.9204 L1591.3418,1102.9204 L1695.3418,1079.9205 L1813.3418,1027.9205 L2007.014,922.2811 L2243.4573,812.8821 L2420.542,753.85394 L2550.3418,782.69836 z" fill="#FFC879" fill-rule="nonzero" opacity="0.9" stroke="black" stroke-width="5.357647"/>
</g>
<g>
<path d="M1275.391,1536.1226 L1405.1909,1507.2782 L1582.2756,1566.3064 L1818.7189,1675.7056 L2012.391,1781.3448 L2130.391,1833.3448 L2234.391,1856.3448 L2346.391,1849.3448 L2550.391,1798.3448 L2525.391,2042.3448 L2550.391,2288.3447 L2346.391,2237.3447 L2234.391,2230.3447 L2130.391,2253.3447 L2012.391,2305.3447 L1818.7188,2410.9844 L1582.2756,2520.3833 L1405.1909,2579.4116 L1275.391,2550.5671 z" fill="#FFC879" fill-rule="nonzero" opacity="0.9" stroke="black" stroke-width="5.357647"/>
</g>
</g>
<g/>
<g/>
<g/>
</svg>