<svg viewBox="-182.49594 -122.499886 7613.285 5145" xmlns="http://www.w3.org/2000/svg">
<g>
<path d="M-1.227417,0 L7249.5205,0 L7249.5205,4900 L-1.227417,4900 z" fill="#CC824A" stroke="black" stroke-width="20.580002"/>
</g>
<g>
<g>
<path d="M0.07141113,87.733765 L966.0714,143.73376 L1983.0714,1.7337646 L2185.0713,239.73376 L2734.0713,218.73376 L3000.0713,768.73376 L2819.0713,901.73376 L2819.0713,1361.7338 L3000.0713,1494.7338 L2734.0713,2044.7338 L2185.0713,2023.7338 L1983.0714,2261.734 L966.0714,2119.734 L0.07141113,2175.734 z" fill="#FFC879" fill-rule="nonzero" opacity="0.9" stroke="black" stroke-width="10.290001"/>
</g>
<g>
<path d="M3000.1904,4303.138 L2034.1903,4247.138 L1017.19025,4389.1377 L815.1903,4151.1377 L266.1903,4172.1377 L0.19042969,3622.1377 L181.19043,3489.1377 L181.19043,3029.1377 L0.19042969,2896.1377 L266.19055,2346.1377 L815.19055,2367.1377 L1017.1906,2129.1377 L2034.1906,2271.138 L3000.1904,2215.1382 z" fill="#FFC879" fill-rule="nonzero" opacity="0.9" stroke="black" stroke-width="10.290001"/>
</g>
<g>
<path d="M0.023803711,4395.6235 L3034.024,4395.6235 L3034.024,4656.6235 L0.023803711,4656.6235 z" fill="#FFC879" fill-rule="nonzero" opacity="0.9" stroke="black" stroke-width="10.290001"/>
</g>
<g>
<path d="M5789.105,261.5169 L2755.105,261.51645 L2755.105,0.516449 L5789.105,0.51690674 z" fill="#FFC879" fill-rule="nonzero" opacity="0.9" stroke="black" stroke-width="10.290001"/>
</g>
<g>
<path d="M5065.2085,1789.4128 L3304.2085,1962.4125 L2882.2085,1312.4125 L2882.2085,952.4124 L3304.2085,302.41248 L5065.2085,475.41278 z" fill="#FFC879" fill-rule="nonzero" opacity="0.9" stroke="black" stroke-width="10.290001"/>
</g>
<g>
<path d="M3000.302,1993.281 L4761.302,1820.281 L5183.302,2470.281 L5183.302,2830.281 L4761.302,3480.281 L3000.302,3307.281 z" fill="#FFC879" fill-rule="nonzero" opacity="0.9" stroke="black" stroke-width="10.290001"/>
</g>
<g>
<path d="M6679.4253,4726.5205 L4918.4253,4899.5205 L4496.4253,4249.5205 L4496.4253,3889.5203 L4918.4253,3239.5205 L6679.4253,3412.5208 z" fill="#FFC879" fill-rule="nonzero" opacity="0.9" stroke="black" stroke-width="10.290001"/>
</g>
<g>
<path d="M7248.2695,1751.0449 L5487.2695,1924.0447 L5065.2695,1274.0447 L5065.2695,914.0446 L5487.2695,264.04468 L7248.2695,437.04498 z" fill="#FFC879" fill-rule="nonzero" opacity="0.9" stroke="black" stroke-width="10.290001"/>
</g>
<g>
<path d="M4129.3735,4899.9175 L3333.3738,4780.9175 L2537.3738,4899.917 L2463.3738,4774.917 L3333.3738,4594.9175 L4203.3735,4774.9175 z" fill="#FFC879" fill-rule="nonzero" opacity="0.9" stroke="black" stroke-width="10.290001"/>
</g>
<g>
<path d="M4930.449,1841.5764 L5726.449,1960.5764 L6522.449,1841.5764 L6596.449,1966.5764 L5726.449,2146.5764 L4856.449,1966.5764 z" fill="#FFC879" fill-rule="nonzero" opacity="0.9" stroke="black" stroke-width="10.290001"/>
</g>
<g>
<path d="M5065.309,2048.9048 L5861.309,2167.9048 L6657.309,2048.9048 L6731.309,2173.9048 L5861.309,2353.9048 L4991.309,2173.9048 z" fill="#FFC879" fill-rule="nonzero" opacity="0.9" stroke="black" stroke-width="10.290001"/>
</g>
<g>
<path d="M5057.0776,3026.2073 L5853.0776,3145.2073 L6649.0776,3026.2073 L6723.0776,3151.2073 L5853.0776,3331.2073 L4983.0776,3151.2073 z" fill="#FFC879" fill-rule="nonzero" opacity="0.9" stroke="black" stroke-width="10.290001"/>
</g>
</g>
<g/>
<g/>
<g/>
</svg>