<svg viewBox="-356.70825 -122.39989 14901.718 5140.8" xmlns="http://www.w3.org/2000/svg">
<g>
<path d="M-1.9057617,0 L14190.207,0 L14190.207,4896 L-1.9057617,4896 z" fill="#CC824A" stroke="black" stroke-width="20.5632"/>
</g>
<g>
<g>
<path d="M3000.543,2177.5537 L2034.5428,2121.5535 L1017.5428,2263.5532 L815.54285,2025.5532 L266.54285,2046.5532 L0.54296875,1496.5531 L181.54297,1363.5531 L181.54297,903.5531 L0.54296875,770.5531 L266.5431,220.55316 L815.5431,241.55322 L1017.54315,3.5532227 L2034.5431,145.5534 L3000.543,89.55359 z" fill="#FFC879" fill-rule="nonzero" opacity="0.9" stroke="black" stroke-width="10.2816"/>
</g>
<g>
<path d="M2.9573975,2240.6377 L968.9574,2296.6377 L1985.9574,2154.6377 L2187.9575,2392.6377 L2736.9575,2371.6377 L3002.9575,2921.6377 L2821.9575,3054.6377 L2821.9575,3514.6377 L3002.9575,3647.6377 L2736.9575,4197.6377 L2187.9575,4176.6377 L1985.9574,4414.6377 L968.9574,4272.6377 L2.9573975,4328.6377 z" fill="#FFC879" fill-rule="nonzero" opacity="0.9" stroke="black" stroke-width="10.2816"/>
</g>
<g>
<path d="M5827.5547,3951.7993 L4861.5547,3895.799 L3844.5544,4037.7988 L3642.5547,3799.7988 L3093.5547,3820.7988 L2827.5547,3270.7988 L3008.5547,3137.7988 L3008.5547,2677.7988 L2827.5547,2544.7988 L3093.5547,1994.7988 L3642.5547,2015.799 L3844.555,1777.799 L4861.5547,1919.7991 L5827.5547,1863.7993 z" fill="#FFC879" fill-rule="nonzero" opacity="0.9" stroke="black" stroke-width="10.2816"/>
</g>
<g>
<path d="M8655.4375,2176.94 L7689.4375,2120.9397 L6672.4375,2262.9395 L6470.4375,2024.9396 L5921.4375,2045.9395 L5655.4375,1495.9395 L5836.4375,1362.9395 L5836.4375,902.93945 L5655.4375,769.93945 L5921.4375,219.93951 L6470.4375,240.93958 L6672.4375,2.9395752 L7689.4375,144.93976 L8655.4375,88.93994 z" fill="#FFC879" fill-rule="nonzero" opacity="0.9" stroke="black" stroke-width="10.2816"/>
</g>
<g>
<path d="M3035.0378,4687.8564 L1.0378418,4687.8564 L1.0378418,4426.8564 L3035.0378,4426.8564 z" fill="#FFC879" fill-rule="nonzero" opacity="0.9" stroke="black" stroke-width="10.2816"/>
</g>
<g>
<path d="M2757.5972,4158.3296 L5791.597,4158.3296 L5791.597,4419.3296 L2757.5972,4419.3296 z" fill="#FFC879" fill-rule="nonzero" opacity="0.9" stroke="black" stroke-width="10.2816"/>
</g>
<g>
<path d="M3056.9507,84.80615 L4066.9507,154.80615 L4891.9507,11.806152 L5186.9507,299.80615 L5573.9507,252.80615 L5676.9507,937.80615 L5594.9507,1377.8062 L3000.9507,1377.8062 z" fill="#FFC879" fill-rule="nonzero" opacity="0.9" stroke="black" stroke-width="10.2816"/>
</g>
<g>
<path d="M5885.304,2266.357 L6895.304,2336.357 L7720.304,2193.357 L8015.304,2481.357 L8402.305,2434.357 L8505.305,3119.357 L8423.305,3559.357 L5829.304,3559.357 z" fill="#FFC879" fill-rule="nonzero" opacity="0.9" stroke="black" stroke-width="10.2816"/>
</g>
<g>
<path d="M8497.15,4740.4697 L5998.15,4740.469 L5792.1504,4353.469 L5875.1504,3806.4692 L6349.1504,3773.4692 L6577.1504,3588.4692 L7436.1504,3681.4695 L8497.15,3615.4695 z" fill="#FFC879" fill-rule="nonzero" opacity="0.9" stroke="black" stroke-width="10.2816"/>
</g>
<g>
<path d="M11360.596,1154.5955 L8861.596,1154.5952 L8655.596,767.5951 L8738.596,220.59512 L9212.596,187.59521 L9440.596,2.5952148 L10299.596,95.5954 L11360.596,29.59552 z" fill="#FFC879" fill-rule="nonzero" opacity="0.9" stroke="black" stroke-width="10.2816"/>
</g>
<g>
<path d="M10652.63,3335.5396 L8891.63,3508.539 L8469.63,2858.539 L8469.63,2498.539 L8891.63,1848.5392 L10652.63,2021.5396 z" fill="#FFC879" fill-rule="nonzero" opacity="0.9" stroke="black" stroke-width="10.2816"/>
</g>
<g>
<path d="M9928.526,3407.1384 L11689.526,3234.1384 L12111.526,3884.1384 L12111.526,4244.1387 L11689.526,4894.1387 L9928.526,4721.1387 z" fill="#FFC879" fill-rule="nonzero" opacity="0.9" stroke="black" stroke-width="10.2816"/>
</g>
<g>
<path d="M10654.011,1226.5692 L12415.011,1053.5692 L12837.011,1703.5692 L12837.011,2063.5693 L12415.011,2713.5693 L10654.011,2540.5693 z" fill="#FFC879" fill-rule="nonzero" opacity="0.9" stroke="black" stroke-width="10.2816"/>
</g>
<g>
<path d="M14187.759,4184.2344 L12426.759,4357.2344 L12004.759,3707.2341 L12004.759,3347.2341 L12426.759,2697.2344 L14187.759,2870.2346 z" fill="#FFC879" fill-rule="nonzero" opacity="0.9" stroke="black" stroke-width="10.2816"/>
</g>
</g>
<g/>
<g/>
<g/>
</svg>