<svg viewBox="-16.94389 -63.74994 708.12244 2677.5" xmlns="http://www.w3.org/2000/svg">
<g>
<path d="M-0.083847046,0 L674.3185,0 L674.3185,2550 L-0.083847046,2550 z" fill="#CC824A" stroke="black" stroke-width="2.83249"/>
</g>
<g>
<g>
<path d="M115.032555,1088.0095 L113.03254,620.00946 L21.032532,371.00946 L44.032516,242.00946 L47.032516,168.00946 L0.03251648,49.00946 L295.0325,1.0094604 L396.03253,20.00946 L407.03256,1098.0095 z" fill="#FFC879" fill-rule="nonzero" opacity="0.9" stroke="black" stroke-width="1.416245"/>
</g>
<g>
<path d="M292.06088,1094.1976 L294.06085,1562.1976 L386.06085,1811.1976 L363.06085,1940.1976 L360.06085,2014.1976 L407.06085,2133.1978 L112.06083,2181.1978 L11.060837,2162.1978 L0.06088257,1084.1976 z" fill="#FFC879" fill-rule="nonzero" opacity="0.9" stroke="black" stroke-width="1.416245"/>
</g>
<g>
<path d="M0.1942749,2497.701 L2.194275,2181.701 L274.19427,2181.701 L275.19427,2497.701 z" fill="#FFC879" fill-rule="nonzero" opacity="0.9" stroke="black" stroke-width="1.416245"/>
</g>
<g>
<path d="M399.20212,316.2885 L401.20212,0.28852844 L673.20215,0.28852844 L674.20215,316.2885 z" fill="#FFC879" fill-rule="nonzero" opacity="0.9" stroke="black" stroke-width="1.416245"/>
</g>
</g>
<g/>
<g/>
<g/>
</svg>