<svg viewBox="-292.8597 -122.499886 12300.118 5145" xmlns="http://www.w3.org/2000/svg" xmlns:xlink="http://www.w3.org/1999/xlink">
<g id="bin_0">
<path d="M0,0 L11714.399,0 L11714.399,4900 L0,4900 z" fill="#CC824A" stroke="black" stroke-width="20.580002"/>
<title>bin, id: 0, bbox: [x_min: 0.000, y_min: 0.000, x_max: 11714.399, y_max: 4900.000]</title>
</g>
<g id="items">
<defs>
<g id="item_0">
<path d="M0,86 L966,142 L1983,0 L2185,238 L2734,217 L3000,767 L2819,900 L2819,1360 L3000,1493 L2734,2043 L2185,2022 L1983,2260 L966,2118 L0,2174 z" fill="#FFC879" fill-rule="nonzero" opacity="0.9" stroke="black" stroke-width="10.290001"/>
</g>
<g id="item_1">
<path d="M0,0 L3034,0 L3034,261 L0,261 z" fill="#FFC879" fill-rule="nonzero" opacity="0.9" stroke="black" stroke-width="10.290001"/>
</g>
<g id="item_2">
<path d="M0,173 L1761,0 L2183,650 L2183,1010 L1761,1660 L0,1487 z" fill="#FFC879" fill-rule="nonzero" opacity="0.9" stroke="black" stroke-width="10.290001"/>
</g>
<g id="item_3">
<path d="M74,0 L870,119 L1666,0 L1740,125 L870,305 L0,125 z" fill="#FFC879" fill-rule="nonzero" opacity="0.9" stroke="black" stroke-width="10.290001"/>
</g>
<g id="item_4">
<path d="M0,0 L411,65 L800,0 L1189,65 L1600,0 L1500,368 L800,286 L100,368 z" fill="#FFC879" fill-rule="nonzero" opacity="0.9" stroke="black" stroke-width="10.290001"/>
</g>
<g id="item_5">
<path d="M0,0 L936,0 L936,659 L0,659 z" fill="#FFC879" fill-rule="nonzero" opacity="0.9" stroke="black" stroke-width="10.290001"/>
</g>
<g id="item_6">
<path d="M56,73 L1066,143 L1891,0 L2186,288 L2573,241 L2676,926 L2594,1366 L0,1366 z" fill="#FFC879" fill-rule="nonzero" opacity="0.9" stroke="black" stroke-width="10.290001"/>
</g>
<g id="item_7">
<path d="M0,0 L2499,0 L2705,387 L2622,934 L2148,967 L1920,1152 L1061,1059 L0,1125 z" fill="#FFC879" fill-rule="nonzero" opacity="0.9" stroke="black" stroke-width="10.290001"/>
</g>
</defs>
<use transform="translate(3002.352 2272.5413), rotate(-180)" xlink:href="#item_0">
<title>item, id: 0, transf: [r: -180.000°, t: (3002.352, 2272.541)]</title>
</use>
<use transform="translate(2.0214844 2141.4558), rotate(0)" xlink:href="#item_0">
<title>item, id: 0, transf: [r: 0.000°, t: (2.021, 2141.456)]</title>
</use>
<use transform="translate(3036.3398 4689.9414), rotate(-180)" xlink:href="#item_1">
<title>item, id: 1, transf: [r: -180.000°, t: (3036.340, 4689.941)]</title>
</use>
<use transform="translate(3002.7896 0.7116852), rotate(0)" xlink:href="#item_1">
<title>item, id: 1, transf: [r: 0.000°, t: (3002.790, 0.712)]</title>
</use>
<use transform="translate(5679.8403 1644.3508), rotate(-180)" xlink:href="#item_6">
<title>item, id: 6, transf: [r: -180.000°, t: (5679.840, 1644.351)]</title>
</use>
<use transform="translate(2991.5576 1822.8878), rotate(0)" xlink:href="#item_6">
<title>item, id: 6, transf: [r: 0.000°, t: (2991.558, 1822.888)]</title>
</use>
<use transform="translate(5639.05 4469.5386), rotate(-180)" xlink:href="#item_7">
<title>item, id: 7, transf: [r: -180.000°, t: (5639.050, 4469.539)]</title>
</use>
<use transform="translate(8282.606 2265.3342), rotate(-180)" xlink:href="#item_7">
<title>item, id: 7, transf: [r: -180.000°, t: (8282.606, 2265.334)]</title>
</use>
<use transform="translate(7811.8325 3966.945), rotate(-180)" xlink:href="#item_2">
<title>item, id: 2, transf: [r: -180.000°, t: (7811.833, 3966.945)]</title>
</use>
<use transform="translate(7812.6133 2149.1555), rotate(0)" xlink:href="#item_2">
<title>item, id: 2, transf: [r: 0.000°, t: (7812.613, 2149.156)]</title>
</use>
<use transform="translate(10387.026 1668.1085), rotate(-180)" xlink:href="#item_2">
<title>item, id: 2, transf: [r: -180.000°, t: (10387.026, 1668.109)]</title>
</use>
<use transform="translate(11712.378 4891.7817), rotate(-180)" xlink:href="#item_2">
<title>item, id: 2, transf: [r: -180.000°, t: (11712.378, 4891.782)]</title>
</use>
<use transform="translate(3002.6528 1541.9312), rotate(0)" xlink:href="#item_3">
<title>item, id: 3, transf: [r: 0.000°, t: (3002.653, 1541.931)]</title>
</use>
<use transform="translate(4422.661 4891.7534), rotate(-180)" xlink:href="#item_3">
<title>item, id: 3, transf: [r: -180.000°, t: (4422.661, 4891.753)]</title>
</use>
<use transform="translate(3621.3994 4473.7124), rotate(0)" xlink:href="#item_3">
<title>item, id: 3, transf: [r: 0.000°, t: (3621.399, 4473.712)]</title>
</use>
<use transform="translate(6285.5215 4895.593), rotate(-180)" xlink:href="#item_3">
<title>item, id: 3, transf: [r: -180.000°, t: (6285.521, 4895.593)]</title>
</use>
<use transform="translate(7265.7197 640.4878), rotate(-180)" xlink:href="#item_4">
<title>item, id: 4, transf: [r: -180.000°, t: (7265.720, 640.488)]</title>
</use>
<use transform="translate(7248.961 1011.92365), rotate(-180)" xlink:href="#item_4">
<title>item, id: 4, transf: [r: -180.000°, t: (7248.961, 1011.924)]</title>
</use>
<use transform="translate(7197.8438 4623.6196), rotate(-180)" xlink:href="#item_4">
<title>item, id: 4, transf: [r: -180.000°, t: (7197.844, 4623.620)]</title>
</use>
<use transform="translate(8105.3047 4281.729), rotate(-180)" xlink:href="#item_4">
<title>item, id: 4, transf: [r: -180.000°, t: (8105.305, 4281.729)]</title>
</use>
<use transform="translate(8203.869 662.17944), rotate(-180)" xlink:href="#item_5">
<title>item, id: 5, transf: [r: -180.000°, t: (8203.869, 662.179)]</title>
</use>
<use transform="translate(9041.708 4477.6235), rotate(-180)" xlink:href="#item_5">
<title>item, id: 5, transf: [r: -180.000°, t: (9041.708, 4477.624)]</title>
</use>
<use transform="translate(9630.038 1570.9415), rotate(0)" xlink:href="#item_5">
<title>item, id: 5, transf: [r: 0.000°, t: (9630.038, 1570.942)]</title>
</use>
<use transform="translate(10932.199 2895.281), rotate(-180)" xlink:href="#item_5">
<title>item, id: 5, transf: [r: -180.000°, t: (10932.199, 2895.281)]</title>
</use>
</g>
<g id="quality_zones"/>
<g id="optionals"/>
</svg>